<svg xmlns="http://www.w3.org/2000/svg" viewBox="0 0 32 32" fill="none">
  <circle cx="16" cy="16" r="14" fill="#3b82f6"/>
  <path d="M16 2C8.268 2 2 8.268 2 16s6.268 14 14 14 14-6.268 14-14S23.732 2 16 2zm0 2c6.627 0 12 5.373 12 12s-5.373 12-12 12S4 22.627 4 16 9.373 4 16 4z" fill="#1e40af"/>
  <path d="M16 6c-2.761 0-5 2.239-5 5s2.239 5 5 5 5-2.239 5-5-2.239-5-5-5zm0 2c1.654 0 3 1.346 3 3s-1.346 3-3 3-3-1.346-3-3 1.346-3 3-3z" fill="#dbeafe"/>
  <path d="M8 20c0 1.105.895 2 2 2h12c1.105 0 2-.895 2-2s-.895-2-2-2H10c-1.105 0-2 .895-2 2z" fill="#dbeafe"/>
  <path d="M12 24c0 .552.448 1 1 1h6c.552 0 1-.448 1-1s-.448-1-1-1h-6c-.552 0-1 .448-1 1z" fill="#dbeafe"/>
</svg>
